<svg xmlns="http://www.w3.org/2000/svg" viewBox="0 0 240 240" fill="none">
  <!-- Carrito de compras -->
  <g stroke="#D2691E" stroke-width="5" stroke-linecap="round" stroke-linejoin="round">
    <!-- Estructura del carrito -->
    <path d="M20 40 L40 40 L65 160 C65 168 72 175 80 175 L180 175 C188 175 195 168 195 160 L210 80 L55 80"/>
    
    <!-- Detalles del carrito -->
    <line x1="55" y1="80" x2="65" y2="160"/>
    <line x1="195" y1="160" x2="205" y2="80"/>
  </g>
  
  <!-- Ruedas del carrito -->
  <circle cx="90" cy="200" r="15" stroke="#D2691E" stroke-width="5" fill="none"/>
  <circle cx="90" cy="200" r="5" fill="#D2691E"/>
  
  <circle cx="170" cy="200" r="15" stroke="#D2691E" stroke-width="5" fill="none"/>
  <circle cx="170" cy="200" r="5" fill="#D2691E"/>
  
  <!-- Cara triste dentro del carrito (indicando vacío) -->
  <g transform="translate(130, 115)">
    <!-- Ojos -->
    <circle cx="-15" cy="-5" r="4" fill="#D2691E"/>
    <circle cx="15" cy="-5" r="4" fill="#D2691E"/>
    
    <!-- Boca triste -->
    <path d="M-20 15 Q0 5 20 15" stroke="#D2691E" stroke-width="4" 
          stroke-linecap="round" fill="none"/>
  </g>
  
  <!-- Líneas que indican vacío (opcional) -->
  <g opacity="0.3" stroke="#D2691E" stroke-width="3" stroke-dasharray="5,5">
    <line x1="80" y1="100" x2="190" y2="100"/>
    <line x1="85" y1="120" x2="185" y2="120"/>
    <line x1="90" y1="140" x2="180" y2="140"/>
  </g>
  
  <!-- Texto "Vacío" (opcional, puedes quitarlo si prefieres) -->
  <text x="130" y="170" font-family="Arial, sans-serif" font-size="16" 
        fill="#D2691E" text-anchor="middle" opacity="0.6">
    Vacío
  </text>
</svg>