<?xml version="1.0" encoding="UTF-8"?>
<svg width="512" height="512" viewBox="0 0 512 512" xmlns="http://www.w3.org/2000/svg">
	<!-- Fondo blanco pastel -->
	<rect width="512" height="512" rx="70" fill="#FFF8FC"/>

	<!-- Dona centrada con brillo -->
	<g>
		<ellipse cx="256" cy="110" rx="62" ry="54" fill="#FF60B2"/>
		<ellipse cx="256" cy="110" rx="28" ry="21" fill="#FFF8FC"/>
		<!-- Chorreado abajo -->
		<path d="M196,115 Q210,145 225,135 Q230,150 245,142 Q255,156 267,144 Q276,134 308,144 Q317,130 312,112"
		  fill="#FF7AC1" opacity="0.9"/>
		<!-- Brillos laterales -->
		<circle cx="236" cy="96" r="6.5" fill="#FFF" opacity="0.38"/>
		<ellipse cx="278" cy="102" rx="7" ry="2.7" fill="#FFF" opacity="0.26"/>
		<ellipse cx="252" cy="135" rx="16" ry="5" fill="#FFF" opacity="0.22"/>
	</g>

	<!-- Texto "Delicia" centrado -->
	<text x="256" y="188" font-size="52" font-family="Montserrat, Arial Black, sans-serif" font-weight="bold" fill="#FF60B2" text-anchor="middle">
		Delicia
	</text>

	<!-- Curvas decorativas abajo del texto -->
	<path d="M186,203 Q256,216 326,203" stroke="#FF7AC1" stroke-width="3" fill="none"/>
	<polygon points="252,192 255,198 261,198 257,202 259,208 252,204 245,208 247,202 243,198 249,198" fill="#FF7AC1" opacity="0.5"/>

	<!-- Texto "PASTELERÍA" GRANDE, bloque -->
	<text x="256" y="270" font-size="82" font-family="Montserrat Black, Arial Black, Impact, sans-serif" font-weight="900" fill="#FF7AC1"
		  text-anchor="middle" letter-spacing="6">PASTELERÍA</text>
	<!-- Brillo sobre la "I" central -->
	<polygon points="288,252 291,258 298,258 293,263 295,270 288,265 281,270 283,263 278,258 285,258" fill="#fff"/>

	<!-- Texto pequeño abajo -->
	<text x="256" y="320" font-size="26" font-family="Montserrat, Arial, sans-serif" fill="#FF60B2" font-weight="bold"
		  text-anchor="middle">"Con insumos naturales"</text>
</svg>